<svg width="17.000000" height="24.000000" viewBox="0 0 17 24" fill="none" xmlns="http://www.w3.org/2000/svg" xmlns:xlink="http://www.w3.org/1999/xlink">
	<desc>
			Created with Pixso.
	</desc>
	<defs/>
	<path id="Vector" d="M2.17 1.32L5.02 0L9.06 7.88L6.33 9.23C5.79 10.49 8.49 15.52 9.63 15.6C9.72 15.54 12.3 14.27 12.3 14.27L16.41 22.2C16.41 22.2 13.65 23.56 13.56 23.6C5.69 27.19 -5.55 5.34 2.17 1.32ZM4.1 2.59L3.08 3.1C-2.22 5.86 7.25 24.28 12.73 21.78L13.7 21.31L11.43 16.92L10.4 17.42C7.24 18.97 2.14 9.2 5.34 7.49L6.35 6.99L4.1 2.59Z" fill="#000000" fill-opacity="1.000000" fill-rule="nonzero"/>
</svg>
