<svg width="24.000000" height="23.000000" viewBox="0 0 24 23" fill="none" xmlns="http://www.w3.org/2000/svg" xmlns:xlink="http://www.w3.org/1999/xlink">
	<desc>
			Created with Pixso.
	</desc>
	<defs/>
	<path id="Vector" d="M12.04 22.64C4.22 22.64 0 17.77 0 11.47C0 4.75 4.76 -0.65 13.27 -0.65C19.49 -0.65 24 3.39 24 8.95C24 17.66 13.66 19.96 14.18 14.99C13.47 16.1 12.33 17.34 10.13 17.34C7.61 17.34 6.05 15.5 6.05 12.54C6.05 8.09 8.97 4.34 12.43 4.34C14.09 4.34 15.23 5.21 15.71 6.56L16.17 4.93L18.51 4.93C18.26 5.76 16.19 13.45 16.19 13.45C15.54 16.12 17.54 16.17 19.31 14.75C22.64 12.17 22.81 5.42 18.31 2.61C13.49 -0.28 2.52 1.51 2.52 11.3C2.52 16.91 6.47 20.68 12.35 20.68C15.78 20.68 17.89 19.75 19.64 18.74L20.82 20.43C19.11 21.4 16.36 22.64 12.04 22.64ZM9.69 8.34C8.98 9.68 8.52 11.41 8.52 12.76C8.52 16.37 12.04 16.4 13.77 13C14.48 11.61 14.94 9.83 14.94 8.47C14.94 5.56 11.44 5.04 9.69 8.34Z" fill="#574E56" fill-opacity="1.000000" fill-rule="nonzero"/>
</svg>
