<svg width="22.000000" height="33.000000" viewBox="0 0 22 33" fill="none" xmlns="http://www.w3.org/2000/svg" xmlns:xlink="http://www.w3.org/1999/xlink">
	<desc>
			Created with Pixso.
	</desc>
	<defs/>
	<path id="Vector" d="M10.5 2.75C14.89 2.75 18.75 6.34 18.75 10.45C18.75 14.7 15.32 20.25 10.5 27.86C5.67 20.25 2.25 14.7 2.25 10.45C2.25 6.34 6.1 2.75 10.5 2.75ZM10.5 0C4.72 0 -0.5 4.67 -0.5 10.45C-0.5 16.22 4.26 23.11 10.5 33C16.73 23.11 21.5 16.22 21.5 10.45C21.5 4.67 16.27 0 10.5 0L10.5 0ZM10.5 15.12C8.22 15.12 6.37 13.27 6.37 11C6.37 8.72 8.22 6.87 10.5 6.87C12.77 6.87 14.62 8.72 14.62 11C14.62 13.27 12.77 15.12 10.5 15.12Z" fill="#000000" fill-opacity="1.000000" fill-rule="nonzero"/>
</svg>
