<svg width="25.000000" height="15.000000" viewBox="0 0 25 15" fill="none" xmlns="http://www.w3.org/2000/svg" xmlns:xlink="http://www.w3.org/1999/xlink">
	<desc>
			Created with Pixso.
	</desc>
	<defs/>
	<path id="Vector" d="M22 2L15 2L15 0L22 0L22 2ZM23.72 12C23.28 13.29 21.69 15 18.62 15C15.55 15 13.06 13.27 13.06 9.32C13.06 5.41 15.38 3.4 18.52 3.4C21.6 3.4 23.49 5.18 23.9 7.83C23.98 8.33 24.01 9.01 23.99 9.97L15.97 9.97C16.1 13.18 19.45 13.28 20.55 12L23.72 12ZM16.04 8L21 8C20.89 6.45 19.86 5.78 18.52 5.78C17.06 5.78 16.25 6.54 16.04 8ZM6.46 14.98L0 14.98L0 0.02L6.95 0.02C12.42 0.1 12.53 5.46 9.67 6.92C13.13 8.18 13.25 14.98 6.46 14.98ZM3 6L6.58 6C9.09 6 9.48 3 6.27 3L3 3L3 6ZM6.39 9L3 9L3 12.01L6.34 12.01C9.39 12.01 9.2 9 6.39 9Z" fill="#000000" fill-opacity="1.000000" fill-rule="nonzero"/>
</svg>
