<svg width="24.000000" height="24.000000" viewBox="0 0 24 24" fill="none" xmlns="http://www.w3.org/2000/svg" xmlns:xlink="http://www.w3.org/1999/xlink">
	<desc>
			Created with Pixso.
	</desc>
	<defs/>
	<path id="Vector" d="M12 0C5.37 0 0 5.37 0 12C0 17.08 3.16 21.42 7.62 23.17C7.52 22.22 7.42 20.76 7.66 19.73C7.88 18.79 9.07 13.76 9.07 13.76C9.07 13.76 8.71 13.04 8.71 11.98C8.71 10.31 9.68 9.07 10.88 9.07C11.91 9.07 12.4 9.84 12.4 10.76C12.4 11.79 11.75 13.33 11.41 14.75C11.12 15.95 12.01 16.92 13.18 16.92C15.32 16.92 16.96 14.67 16.96 11.43C16.96 8.55 14.89 6.54 11.94 6.54C8.53 6.54 6.53 9.11 6.53 11.75C6.53 12.78 6.92 13.89 7.42 14.49C7.52 14.61 7.53 14.71 7.5 14.83L7.17 16.19C7.12 16.41 7 16.46 6.77 16.36C5.27 15.66 4.33 13.47 4.33 11.71C4.33 7.92 7.08 4.44 12.26 4.44C16.42 4.44 19.66 7.41 19.66 11.37C19.66 15.51 17.05 18.84 13.43 18.84C12.22 18.84 11.07 18.21 10.68 17.46L9.93 20.31C9.66 21.36 8.93 22.66 8.44 23.46C9.57 23.81 10.76 24 12 24C18.62 24 24 18.62 24 12C24 5.37 18.62 0 12 0L12 0Z" fill="#000000" fill-opacity="1.000000" fill-rule="evenodd"/>
</svg>
