<svg width="24.000000" height="24.000000" viewBox="0 0 24 24" fill="none" xmlns="http://www.w3.org/2000/svg" xmlns:xlink="http://www.w3.org/1999/xlink">
	<desc>
			Created with Pixso.
	</desc>
	<defs/>
	<path id="Vector" d="M12 2.16C15.2 2.16 15.58 2.17 16.85 2.23C20.1 2.38 21.62 3.92 21.76 7.15C21.82 8.41 21.83 8.79 21.83 12C21.83 15.2 21.82 15.58 21.76 16.85C21.62 20.07 20.1 21.62 16.85 21.76C15.58 21.82 15.2 21.83 12 21.83C8.79 21.83 8.41 21.82 7.15 21.76C3.89 21.62 2.37 20.07 2.23 16.84C2.17 15.58 2.16 15.2 2.16 12C2.16 8.79 2.17 8.41 2.23 7.15C2.38 3.92 3.89 2.37 7.15 2.23C8.41 2.17 8.79 2.16 12 2.16ZM12 0C8.74 0 8.33 0.01 7.05 0.07C2.69 0.27 0.27 2.68 0.07 7.05C0.01 8.33 0 8.74 0 12C0 15.25 0.01 15.66 0.07 16.94C0.27 21.3 2.68 23.72 7.05 23.92C8.33 23.98 8.74 24 12 24C15.25 24 15.66 23.98 16.94 23.92C21.3 23.72 23.73 21.31 23.92 16.94C23.98 15.66 24 15.25 24 12C24 8.74 23.98 8.33 23.92 7.05C23.73 2.69 21.31 0.27 16.94 0.07C15.66 0.01 15.25 0 12 0L12 0ZM12 5.83C8.59 5.83 5.83 8.59 5.83 12C5.83 15.4 8.59 18.16 12 18.16C15.4 18.16 18.16 15.4 18.16 12C18.16 8.59 15.4 5.83 12 5.83ZM12 16C9.79 16 8 14.21 8 12C8 9.79 9.79 8 12 8C14.2 8 16 9.79 16 12C16 14.21 14.2 16 12 16ZM18.4 4.15C17.61 4.15 16.96 4.8 16.96 5.59C16.96 6.38 17.61 7.03 18.4 7.03C19.2 7.03 19.84 6.38 19.84 5.59C19.84 4.8 19.2 4.15 18.4 4.15Z" fill="#000000" fill-opacity="1.000000" fill-rule="nonzero"/>
</svg>
